# xmcd
#
# Track frame offsets:
#	150
#	17805
#	33785
#	51075
#	75455
#	94571
#	127811
#	148234
#	166777
#	189940
#	214230
#	236475
#	252775
#	274541
#	294246
#	312948
#
# Disc length: 4408 seconds
#
# Revision: 1
# Processed by: cddbd v1.5.2PL0 Copyright (c) Steve Scherf et al.
# Submitted via: audiograbber 1.83.01
#
DISCID=ca113610
DTITLE=Various Artist - Ultimate Grammy Collection - Contemporary R&B
DYEAR=2007
DGENRE=R&B
TTITLE0=Anita Baker - GIVING YOU THE BEST THAT I GOT (Single Version)
TTITLE1=Terence Trent D´Arby - WISHING WELL
TTITLE2=Soul II Soul featuring Caron Wheeler - BACK TO LIFE (HOWEVER DO YOU WAN
TTITLE2=T ME)
TTITLE3=Luther Vandross - HERE AND NOW
TTITLE4=Ray Charles - A SONG FOR YOU
TTITLE5=Sade - NO ORDINARY LOVE
TTITLE6=Toni Braxton - BREATHE AGAIN
TTITLE7=Boyz II Men - I´LL MAKE LOVE TO YOU
TTITLE8=Blackstreet featuring Dr.Dre - NO DIGGITY
TTITLE9=R. Kelly - I BELIEVE I CAN FLY
TTITLE10=Brandy and Monica - THE BOY IS MINE
TTITLE11=TLC - NO SCRUBS
TTITLE12=Whitney Houston - IT´S NOT RIGHT BUT IT´S OK
TTITLE13=D´Angelo - UNTITLED (HOW DOES IT FEEL)
TTITLE14=Usher - U REMIND ME
TTITLE15=Beyonce´ featuring Jay-Z - CRAZY IN LOVE
EXTD=
EXTT0=
EXTT1=
EXTT2=
EXTT3=
EXTT4=
EXTT5=
EXTT6=
EXTT7=
EXTT8=
EXTT9=
EXTT10=
EXTT11=
EXTT12=
EXTT13=
EXTT14=
EXTT15=
PLAYORDER=
